<?xml version="1.0" standalone="no"?>
<!DOCTYPE svg PUBLIC "-//W3C//DTD SVG 20010904//EN"
 "http://www.w3.org/TR/2001/REC-SVG-20010904/DTD/svg10.dtd">
<svg version="1.0" xmlns="http://www.w3.org/2000/svg"
 width="1280.000000pt" height="868.000000pt" viewBox="0 0 1280.000000 868.000000"
 preserveAspectRatio="xMidYMid meet">

<g transform="translate(0.000000,868.000000) scale(0.100000,-0.100000)"
fill="#000000" stroke="none">
<path d="M950 6589 c-158 -43 -318 -155 -394 -278 -42 -66 -76 -166 -87 -250
-5 -42 -13 -107 -19 -144 -5 -37 -11 -117 -12 -178 -1 -60 -5 -104 -9 -97 -24
44 -32 288 -13 403 9 52 -14 8 -40 -80 -49 -160 -66 -343 -47 -504 6 -52 9
-97 7 -99 -8 -7 -38 145 -45 223 l-7 80 -10 -70 c-21 -160 0 -408 56 -641 15
-65 27 -121 25 -123 -2 -2 -21 31 -42 73 -34 69 -61 102 -49 59 2 -10 7 -45
11 -78 19 -170 83 -427 140 -559 7 -16 2 -15 -28 8 -43 33 -44 32 -22 -79 28
-147 118 -373 221 -555 52 -93 10 -52 -69 67 -33 51 -63 91 -64 89 -11 -11
107 -256 178 -373 147 -241 370 -472 603 -625 48 -32 84 -58 78 -58 -6 0 -49
14 -97 31 -48 16 -89 29 -91 26 -6 -6 154 -120 261 -184 202 -122 440 -230
683 -308 115 -38 374 -100 460 -111 79 -10 73 -24 -10 -25 -40 0 -95 -4 -123
-7 l-50 -7 95 -17 c328 -60 680 -64 970 -13 l35 7 -25 -21 c-33 -27 -119 -69
-167 -80 -33 -8 -28 -9 42 -10 151 -1 380 42 570 110 48 16 89 29 91 27 2 -3
-17 -24 -41 -48 -25 -24 -45 -48 -45 -52 0 -5 46 15 102 43 105 52 204 117
271 177 43 39 45 34 16 -43 -12 -34 -37 -72 -65 -99 l-45 -45 68 23 c171 58
327 133 426 203 27 19 51 32 54 30 2 -3 -28 -39 -67 -81 -40 -42 -70 -76 -66
-76 11 0 157 75 251 130 105 61 252 161 348 238 38 30 70 52 72 50 2 -2 -23
-39 -56 -81 -33 -42 -57 -77 -54 -77 3 0 34 14 68 31 160 80 350 235 418 340
17 27 33 49 36 49 2 0 1 -15 -2 -32 -12 -56 -75 -176 -119 -225 -52 -60 -38
-51 108 66 216 173 423 388 505 524 12 20 24 37 27 37 12 0 -86 -211 -112
-241 -8 -8 -14 -19 -14 -23 0 -30 141 109 213 209 48 68 147 257 147 283 0 29
17 7 43 -56 51 -127 126 -241 229 -346 91 -94 135 -123 90 -59 -36 52 -120
233 -107 233 2 0 21 -26 41 -57 94 -148 276 -333 515 -524 109 -87 135 -104
98 -63 -43 47 -95 134 -119 202 -13 34 -21 64 -18 67 2 2 24 -23 48 -57 58
-79 163 -176 264 -243 81 -53 205 -119 212 -113 1 2 -24 37 -56 78 -64 80 -78
110 -32 69 78 -72 278 -210 427 -296 77 -45 211 -113 221 -113 3 0 -28 37 -70
81 -42 45 -75 83 -72 86 2 2 28 -14 57 -37 30 -22 99 -63 154 -90 94 -46 303
-130 325 -130 5 0 -9 19 -30 41 -34 36 -80 128 -80 160 0 5 27 -13 61 -41 33
-28 85 -66 115 -85 56 -36 228 -125 241 -125 4 0 -17 25 -47 55 -30 30 -51 55
-46 55 4 0 46 -14 93 -30 184 -65 420 -111 564 -109 l84 1 -47 13 c-73 20
-179 77 -167 89 3 3 43 -2 89 -11 65 -13 147 -17 355 -17 269 -1 334 4 545 42
l95 17 -50 7 c-27 3 -83 7 -123 7 -83 1 -88 15 -10 25 86 11 304 63 438 105
323 99 662 266 903 444 37 27 66 52 64 54 -2 2 -43 -10 -90 -27 -114 -40 -125
-38 -47 10 313 192 607 538 768 905 62 142 59 147 -17 35 -81 -120 -96 -140
-105 -140 -3 0 8 24 25 53 50 84 135 266 169 363 32 91 69 241 70 282 l0 23
-37 -28 c-31 -24 -36 -25 -28 -8 31 75 70 195 90 280 24 98 68 375 61 382 -2
2 -22 -32 -45 -77 -23 -44 -44 -80 -45 -80 -2 0 0 17 5 38 70 280 98 524 79
687 -6 55 -13 101 -15 104 -3 2 -5 -23 -5 -57 0 -61 -20 -176 -39 -222 -8 -19
-8 -7 -3 45 11 107 7 311 -7 395 -15 84 -58 230 -73 245 -6 7 -7 0 -2 -20 19
-73 5 -405 -17 -405 -5 0 -9 42 -9 94 0 168 -47 360 -128 526 -74 153 -244
283 -428 330 -140 36 -329 23 -452 -32 l-54 -23 124 0 c138 0 223 -20 332 -78
108 -57 245 -206 271 -295 6 -20 0 -18 -51 18 -74 52 -148 74 -247 74 -87 0
-124 -18 -56 -27 70 -9 163 -62 219 -124 27 -32 50 -60 50 -65 0 -4 -21 6 -46
22 -47 30 -109 53 -174 65 -29 6 -25 2 26 -24 131 -67 190 -160 201 -319 l6
-84 -42 30 c-49 36 -125 55 -196 50 l-50 -3 36 -16 c93 -43 149 -124 157 -230
9 -132 -43 -231 -215 -409 -95 -100 -257 -229 -269 -217 -3 3 6 21 20 39 42
56 113 217 141 318 14 52 25 99 25 103 0 5 -22 -36 -49 -90 -100 -199 -252
-364 -456 -495 -52 -33 -146 -80 -150 -76 -2 2 11 42 30 88 19 47 35 91 35 98
0 8 -39 -26 -87 -75 -101 -101 -192 -172 -276 -215 -64 -32 -82 -30 -50 5 28
30 96 138 90 143 -2 2 -16 -5 -30 -16 -44 -35 -151 -80 -215 -91 -167 -30
-358 56 -533 238 -81 84 -117 135 -261 358 -133 207 -381 454 -604 602 -62 41
-63 53 -3 29 73 -30 52 -11 -53 47 -405 221 -833 327 -1319 327 -359 0 -690
-53 -1006 -161 -65 -22 -126 -43 -135 -46 -15 -4 -18 1 -18 35 0 77 -27 96
-58 42 -9 -16 -19 -30 -22 -30 -3 0 -13 14 -22 30 -31 54 -58 35 -58 -42 0
-22 -3 -38 -7 -36 -5 2 -53 26 -108 54 -188 96 -405 164 -645 201 -160 24
-500 24 -660 0 -362 -56 -695 -171 -1030 -357 -130 -72 -160 -96 -81 -64 60
24 59 12 -2 -28 -216 -144 -476 -402 -602 -598 -148 -230 -184 -279 -258 -357
-152 -158 -259 -219 -439 -248 -83 -13 -207 24 -315 96 -18 11 -33 18 -33 15
0 -11 51 -89 87 -133 19 -24 29 -43 23 -43 -21 0 -126 59 -190 106 -36 27
-105 89 -153 139 -98 99 -101 97 -46 -39 16 -39 27 -72 24 -74 -2 -2 -33 12
-69 31 -255 141 -431 320 -546 559 -22 45 -40 78 -40 72 0 -5 11 -51 25 -103
27 -100 85 -234 132 -304 16 -23 33 -48 37 -56 5 -7 -18 1 -50 18 -167 89
-377 288 -442 420 -35 70 -37 81 -37 165 1 97 10 124 61 185 15 18 50 44 78
59 l51 27 -50 3 c-71 5 -147 -14 -196 -50 l-42 -30 7 83 c3 46 14 107 24 134
21 63 106 150 182 189 48 24 51 27 20 21 -60 -12 -142 -44 -182 -70 -55 -37
-47 -14 21 55 63 64 142 108 212 117 66 9 29 26 -58 26 -99 0 -173 -21 -246
-72 -31 -22 -57 -38 -57 -35 0 2 14 33 31 67 40 79 153 192 239 240 111 61
197 82 338 82 l124 0 -51 23 c-119 54 -322 68 -461 31z"/>
</g>
</svg>
